# xmcd
#
# Track frame offsets:
#	150
#	17223
#	35270
#	53211
#	69422
#	87011
#	103150
#	120190
#	138290
#	156304
#	172535
#	190004
#
# Disc length: 2748 seconds
#
# Revision: 1
# Processed by: cddbd v1.5.2PL0 Copyright (c) Steve Scherf et al.
# Submitted via: audiograbber 1.83.01
#
DISCID=8b0aba0c
DTITLE=Various Artist - cb20346
DYEAR=1900
DGENRE=country
TTITLE0=Aaron Tippin - I'll take love over money vocal
TTITLE1=Cyndi Thompson - i'm gone Vocal
TTITLE2=Diamond Rio - beautiful mess Vocal
TTITLE3=kasey Chambers - Not pretty enough vocal
TTITLE4=Blake shelton - Ol' Red Vocal
TTITLE5=marie Sisters - Real Bad Mood vocal
TTITLE6=Aaron Tippin - I'll Take Love Over Money anytime
TTITLE7=Cyndi Thompson - I'm Gone
TTITLE8=Diamond Rio - Beautiful Mess
TTITLE9=Kasey Chambers - Not Pretty Enough
TTITLE10=Blake Shelton - Ol' Red
TTITLE11=Marie Sisters - Real Bad Mood
EXTD=
EXTT0=
EXTT1=
EXTT2=
EXTT3=
EXTT4=
EXTT5=
EXTT6=
EXTT7=
EXTT8=
EXTT9=
EXTT10=
EXTT11=
PLAYORDER=
